<mxfile host="app.diagrams.net" modified="2023-12-04T17:33:19.302Z" agent="Mozilla/5.0 (Windows NT 10.0; Win64; x64) AppleWebKit/537.36 (KHTML, like Gecko) Chrome/119.0.0.0 Safari/537.36" etag="zja8gxGehHccDUCjcKva" version="22.1.5" type="device">
  <diagram name="Страница — 1" id="9LkFPr1sySBRUzTfI0oI">
    <mxGraphModel dx="2420" dy="878" grid="1" gridSize="10" guides="1" tooltips="1" connect="1" arrows="1" fold="1" page="1" pageScale="1" pageWidth="827" pageHeight="1169" math="0" shadow="0">
      <root>
        <mxCell id="0" />
        <mxCell id="1" parent="0" />
        <mxCell id="onKWjFYLNjn-iuKopyW6-1" value="Actor" style="shape=umlActor;verticalLabelPosition=bottom;verticalAlign=top;html=1;" vertex="1" parent="1">
          <mxGeometry x="50" y="65" width="30" height="60" as="geometry" />
        </mxCell>
        <mxCell id="onKWjFYLNjn-iuKopyW6-2" value="авторизоваться" style="ellipse;whiteSpace=wrap;html=1;" vertex="1" parent="1">
          <mxGeometry x="240" y="60" width="140" height="70" as="geometry" />
        </mxCell>
        <mxCell id="onKWjFYLNjn-iuKopyW6-5" value="Зарегистрированный Директор" style="text;html=1;align=center;verticalAlign=middle;resizable=0;points=[];autosize=1;strokeColor=none;fillColor=none;" vertex="1" parent="1">
          <mxGeometry y="20" width="200" height="30" as="geometry" />
        </mxCell>
        <mxCell id="onKWjFYLNjn-iuKopyW6-6" value="Запрос отчетностей" style="ellipse;whiteSpace=wrap;html=1;" vertex="1" parent="1">
          <mxGeometry x="240" y="140" width="140" height="70" as="geometry" />
        </mxCell>
        <mxCell id="onKWjFYLNjn-iuKopyW6-8" value="" style="html=1;verticalAlign=bottom;endArrow=block;curved=0;rounded=0;entryX=0;entryY=0.5;entryDx=0;entryDy=0;" edge="1" parent="1" target="onKWjFYLNjn-iuKopyW6-6">
          <mxGeometry width="80" relative="1" as="geometry">
            <mxPoint x="80" y="110" as="sourcePoint" />
            <mxPoint x="240" y="290" as="targetPoint" />
          </mxGeometry>
        </mxCell>
        <mxCell id="onKWjFYLNjn-iuKopyW6-9" value="Работа с базами данных" style="ellipse;whiteSpace=wrap;html=1;" vertex="1" parent="1">
          <mxGeometry x="240" y="220" width="140" height="70" as="geometry" />
        </mxCell>
        <mxCell id="onKWjFYLNjn-iuKopyW6-10" value="" style="html=1;verticalAlign=bottom;endArrow=block;curved=0;rounded=0;exitX=0.5;exitY=0.5;exitDx=0;exitDy=0;exitPerimeter=0;entryX=0;entryY=0.5;entryDx=0;entryDy=0;" edge="1" parent="1" target="onKWjFYLNjn-iuKopyW6-9">
          <mxGeometry width="80" relative="1" as="geometry">
            <mxPoint x="75" y="105" as="sourcePoint" />
            <mxPoint x="260" y="245" as="targetPoint" />
          </mxGeometry>
        </mxCell>
        <mxCell id="onKWjFYLNjn-iuKopyW6-11" value="Регистрация сотрудника" style="ellipse;whiteSpace=wrap;html=1;" vertex="1" parent="1">
          <mxGeometry x="240" y="300" width="140" height="70" as="geometry" />
        </mxCell>
        <mxCell id="onKWjFYLNjn-iuKopyW6-12" value="" style="html=1;verticalAlign=bottom;endArrow=block;curved=0;rounded=0;exitX=0.5;exitY=0.5;exitDx=0;exitDy=0;exitPerimeter=0;entryX=0.007;entryY=0.4;entryDx=0;entryDy=0;entryPerimeter=0;" edge="1" parent="1">
          <mxGeometry width="80" relative="1" as="geometry">
            <mxPoint x="80" y="125" as="sourcePoint" />
            <mxPoint x="235.98000000000002" y="338" as="targetPoint" />
          </mxGeometry>
        </mxCell>
        <mxCell id="onKWjFYLNjn-iuKopyW6-13" value="" style="html=1;verticalAlign=bottom;endArrow=block;curved=0;rounded=0;exitX=0.5;exitY=0.5;exitDx=0;exitDy=0;exitPerimeter=0;entryX=0;entryY=0.5;entryDx=0;entryDy=0;" edge="1" parent="1" target="onKWjFYLNjn-iuKopyW6-2">
          <mxGeometry width="80" relative="1" as="geometry">
            <mxPoint x="75" y="105" as="sourcePoint" />
            <mxPoint x="250" y="185" as="targetPoint" />
          </mxGeometry>
        </mxCell>
        <mxCell id="onKWjFYLNjn-iuKopyW6-14" value="редактирование ролей" style="ellipse;whiteSpace=wrap;html=1;" vertex="1" parent="1">
          <mxGeometry x="390" y="450" width="140" height="70" as="geometry" />
        </mxCell>
        <mxCell id="onKWjFYLNjn-iuKopyW6-15" value="Extends" style="endArrow=block;endSize=16;endFill=0;html=1;rounded=0;entryX=0;entryY=0.286;entryDx=0;entryDy=0;entryPerimeter=0;exitX=1;exitY=1;exitDx=0;exitDy=0;" edge="1" parent="1" source="onKWjFYLNjn-iuKopyW6-11" target="onKWjFYLNjn-iuKopyW6-14">
          <mxGeometry width="160" relative="1" as="geometry">
            <mxPoint x="240" y="290" as="sourcePoint" />
            <mxPoint x="400" y="290" as="targetPoint" />
          </mxGeometry>
        </mxCell>
        <mxCell id="onKWjFYLNjn-iuKopyW6-16" value="удаление сотрудника" style="ellipse;whiteSpace=wrap;html=1;" vertex="1" parent="1">
          <mxGeometry x="480" y="380" width="140" height="70" as="geometry" />
        </mxCell>
        <mxCell id="onKWjFYLNjn-iuKopyW6-17" value="Extends" style="endArrow=block;endSize=16;endFill=0;html=1;rounded=0;entryX=0;entryY=0.5;entryDx=0;entryDy=0;exitX=0.993;exitY=0.629;exitDx=0;exitDy=0;exitPerimeter=0;" edge="1" parent="1" source="onKWjFYLNjn-iuKopyW6-11" target="onKWjFYLNjn-iuKopyW6-16">
          <mxGeometry width="160" relative="1" as="geometry">
            <mxPoint x="369" y="370" as="sourcePoint" />
            <mxPoint x="450" y="450" as="targetPoint" />
          </mxGeometry>
        </mxCell>
        <mxCell id="onKWjFYLNjn-iuKopyW6-18" value="редактирование бд" style="ellipse;whiteSpace=wrap;html=1;" vertex="1" parent="1">
          <mxGeometry x="480" y="290" width="140" height="70" as="geometry" />
        </mxCell>
        <mxCell id="onKWjFYLNjn-iuKopyW6-19" value="Extends" style="endArrow=block;endSize=16;endFill=0;html=1;rounded=0;entryX=0;entryY=0.5;entryDx=0;entryDy=0;exitX=1;exitY=0.629;exitDx=0;exitDy=0;exitPerimeter=0;" edge="1" parent="1" source="onKWjFYLNjn-iuKopyW6-9" target="onKWjFYLNjn-iuKopyW6-18">
          <mxGeometry width="160" relative="1" as="geometry">
            <mxPoint x="389" y="354" as="sourcePoint" />
            <mxPoint x="490" y="425" as="targetPoint" />
          </mxGeometry>
        </mxCell>
        <mxCell id="onKWjFYLNjn-iuKopyW6-20" value="просмотр бд" style="ellipse;whiteSpace=wrap;html=1;" vertex="1" parent="1">
          <mxGeometry x="510" y="220" width="140" height="70" as="geometry" />
        </mxCell>
        <mxCell id="onKWjFYLNjn-iuKopyW6-21" value="Extends" style="endArrow=block;endSize=16;endFill=0;html=1;rounded=0;entryX=-0.007;entryY=0.614;entryDx=0;entryDy=0;exitX=1;exitY=0.5;exitDx=0;exitDy=0;entryPerimeter=0;" edge="1" parent="1" source="onKWjFYLNjn-iuKopyW6-9" target="onKWjFYLNjn-iuKopyW6-20">
          <mxGeometry width="160" relative="1" as="geometry">
            <mxPoint x="390" y="274" as="sourcePoint" />
            <mxPoint x="490" y="335" as="targetPoint" />
            <Array as="points">
              <mxPoint x="500" y="260" />
            </Array>
          </mxGeometry>
        </mxCell>
        <mxCell id="onKWjFYLNjn-iuKopyW6-22" value="выбор периода&amp;nbsp;" style="ellipse;whiteSpace=wrap;html=1;" vertex="1" parent="1">
          <mxGeometry x="510" y="140" width="140" height="70" as="geometry" />
        </mxCell>
        <mxCell id="onKWjFYLNjn-iuKopyW6-23" value="Extends" style="endArrow=block;endSize=16;endFill=0;html=1;rounded=0;exitX=1;exitY=0.5;exitDx=0;exitDy=0;" edge="1" parent="1" target="onKWjFYLNjn-iuKopyW6-22">
          <mxGeometry width="160" relative="1" as="geometry">
            <mxPoint x="380" y="171" as="sourcePoint" />
            <mxPoint x="509" y="179" as="targetPoint" />
            <Array as="points" />
          </mxGeometry>
        </mxCell>
        <mxCell id="onKWjFYLNjn-iuKopyW6-24" value="Actor" style="shape=umlActor;verticalLabelPosition=bottom;verticalAlign=top;html=1;" vertex="1" parent="1">
          <mxGeometry x="60" y="800" width="30" height="60" as="geometry" />
        </mxCell>
        <mxCell id="onKWjFYLNjn-iuKopyW6-25" value="зарегистрированные кассиры" style="text;html=1;align=center;verticalAlign=middle;resizable=0;points=[];autosize=1;strokeColor=none;fillColor=none;" vertex="1" parent="1">
          <mxGeometry x="15" y="750" width="190" height="30" as="geometry" />
        </mxCell>
        <mxCell id="onKWjFYLNjn-iuKopyW6-26" value="авторизоваться" style="ellipse;whiteSpace=wrap;html=1;" vertex="1" parent="1">
          <mxGeometry x="274" y="795" width="140" height="70" as="geometry" />
        </mxCell>
        <mxCell id="onKWjFYLNjn-iuKopyW6-27" value="" style="html=1;verticalAlign=bottom;endArrow=block;curved=0;rounded=0;entryX=0;entryY=0.5;entryDx=0;entryDy=0;" edge="1" parent="1" target="onKWjFYLNjn-iuKopyW6-26">
          <mxGeometry width="80" relative="1" as="geometry">
            <mxPoint x="80" y="830" as="sourcePoint" />
            <mxPoint x="246" y="713" as="targetPoint" />
          </mxGeometry>
        </mxCell>
        <mxCell id="onKWjFYLNjn-iuKopyW6-28" value="сканирование товара" style="ellipse;whiteSpace=wrap;html=1;" vertex="1" parent="1">
          <mxGeometry x="274" y="880" width="140" height="70" as="geometry" />
        </mxCell>
        <mxCell id="onKWjFYLNjn-iuKopyW6-29" value="" style="html=1;verticalAlign=bottom;endArrow=block;curved=0;rounded=0;entryX=0;entryY=0.5;entryDx=0;entryDy=0;" edge="1" parent="1" target="onKWjFYLNjn-iuKopyW6-28">
          <mxGeometry width="80" relative="1" as="geometry">
            <mxPoint x="80" y="830" as="sourcePoint" />
            <mxPoint x="284" y="840" as="targetPoint" />
          </mxGeometry>
        </mxCell>
        <mxCell id="onKWjFYLNjn-iuKopyW6-30" value="работа с корзиной" style="ellipse;whiteSpace=wrap;html=1;" vertex="1" parent="1">
          <mxGeometry x="274" y="970" width="140" height="70" as="geometry" />
        </mxCell>
        <mxCell id="onKWjFYLNjn-iuKopyW6-31" value="" style="html=1;verticalAlign=bottom;endArrow=block;curved=0;rounded=0;entryX=0;entryY=0.5;entryDx=0;entryDy=0;" edge="1" parent="1" target="onKWjFYLNjn-iuKopyW6-30">
          <mxGeometry width="80" relative="1" as="geometry">
            <mxPoint x="80" y="830" as="sourcePoint" />
            <mxPoint x="270" y="1000" as="targetPoint" />
          </mxGeometry>
        </mxCell>
        <mxCell id="onKWjFYLNjn-iuKopyW6-32" value="формирование оплаты" style="ellipse;whiteSpace=wrap;html=1;" vertex="1" parent="1">
          <mxGeometry x="274" y="1050" width="140" height="70" as="geometry" />
        </mxCell>
        <mxCell id="onKWjFYLNjn-iuKopyW6-33" value="" style="html=1;verticalAlign=bottom;endArrow=block;curved=0;rounded=0;entryX=0;entryY=0.5;entryDx=0;entryDy=0;" edge="1" parent="1" target="onKWjFYLNjn-iuKopyW6-32">
          <mxGeometry width="80" relative="1" as="geometry">
            <mxPoint x="90" y="840" as="sourcePoint" />
            <mxPoint x="284" y="1015" as="targetPoint" />
          </mxGeometry>
        </mxCell>
        <mxCell id="onKWjFYLNjn-iuKopyW6-34" value="работа с информаций о товаре" style="ellipse;whiteSpace=wrap;html=1;" vertex="1" parent="1">
          <mxGeometry x="274" y="1150" width="140" height="70" as="geometry" />
        </mxCell>
        <mxCell id="onKWjFYLNjn-iuKopyW6-35" value="" style="html=1;verticalAlign=bottom;endArrow=block;curved=0;rounded=0;entryX=0.036;entryY=0.3;entryDx=0;entryDy=0;entryPerimeter=0;" edge="1" parent="1" target="onKWjFYLNjn-iuKopyW6-34">
          <mxGeometry width="80" relative="1" as="geometry">
            <mxPoint x="80" y="830" as="sourcePoint" />
            <mxPoint x="284" y="1095" as="targetPoint" />
          </mxGeometry>
        </mxCell>
        <mxCell id="onKWjFYLNjn-iuKopyW6-36" value="ввод артикула с камеры" style="ellipse;whiteSpace=wrap;html=1;" vertex="1" parent="1">
          <mxGeometry x="500" y="850" width="140" height="70" as="geometry" />
        </mxCell>
        <mxCell id="onKWjFYLNjn-iuKopyW6-37" value="ввод артикула вручную" style="ellipse;whiteSpace=wrap;html=1;" vertex="1" parent="1">
          <mxGeometry x="640" y="900" width="140" height="70" as="geometry" />
        </mxCell>
        <mxCell id="onKWjFYLNjn-iuKopyW6-39" value="Extends" style="endArrow=block;endSize=16;endFill=0;html=1;rounded=0;entryX=0;entryY=0.5;entryDx=0;entryDy=0;exitX=1;exitY=0.5;exitDx=0;exitDy=0;" edge="1" parent="1" source="onKWjFYLNjn-iuKopyW6-28" target="onKWjFYLNjn-iuKopyW6-36">
          <mxGeometry width="160" relative="1" as="geometry">
            <mxPoint x="414" y="829.5" as="sourcePoint" />
            <mxPoint x="574" y="829.5" as="targetPoint" />
          </mxGeometry>
        </mxCell>
        <mxCell id="onKWjFYLNjn-iuKopyW6-41" value="Extends" style="endArrow=block;endSize=16;endFill=0;html=1;rounded=0;entryX=0;entryY=0.5;entryDx=0;entryDy=0;exitX=1;exitY=0.5;exitDx=0;exitDy=0;" edge="1" parent="1" source="onKWjFYLNjn-iuKopyW6-28" target="onKWjFYLNjn-iuKopyW6-37">
          <mxGeometry width="160" relative="1" as="geometry">
            <mxPoint x="424" y="925" as="sourcePoint" />
            <mxPoint x="510" y="895" as="targetPoint" />
          </mxGeometry>
        </mxCell>
        <mxCell id="onKWjFYLNjn-iuKopyW6-42" value="редактирование корзины" style="ellipse;whiteSpace=wrap;html=1;" vertex="1" parent="1">
          <mxGeometry x="510" y="970" width="140" height="70" as="geometry" />
        </mxCell>
        <mxCell id="onKWjFYLNjn-iuKopyW6-44" value="Extends" style="endArrow=block;endSize=16;endFill=0;html=1;rounded=0;entryX=0;entryY=0.5;entryDx=0;entryDy=0;exitX=1;exitY=0.5;exitDx=0;exitDy=0;" edge="1" parent="1" source="onKWjFYLNjn-iuKopyW6-30" target="onKWjFYLNjn-iuKopyW6-42">
          <mxGeometry width="160" relative="1" as="geometry">
            <mxPoint x="424" y="925" as="sourcePoint" />
            <mxPoint x="650" y="945" as="targetPoint" />
          </mxGeometry>
        </mxCell>
        <mxCell id="onKWjFYLNjn-iuKopyW6-45" value="выбор способа оплаты" style="ellipse;whiteSpace=wrap;html=1;" vertex="1" parent="1">
          <mxGeometry x="500" y="1051" width="140" height="70" as="geometry" />
        </mxCell>
        <mxCell id="onKWjFYLNjn-iuKopyW6-46" value="Extends" style="endArrow=block;endSize=16;endFill=0;html=1;rounded=0;entryX=0;entryY=0.5;entryDx=0;entryDy=0;exitX=1;exitY=0.5;exitDx=0;exitDy=0;" edge="1" parent="1" source="onKWjFYLNjn-iuKopyW6-32" target="onKWjFYLNjn-iuKopyW6-45">
          <mxGeometry width="160" relative="1" as="geometry">
            <mxPoint x="424" y="1015" as="sourcePoint" />
            <mxPoint x="520" y="1015" as="targetPoint" />
          </mxGeometry>
        </mxCell>
        <mxCell id="onKWjFYLNjn-iuKopyW6-47" value="редактирование информации о товаре" style="ellipse;whiteSpace=wrap;html=1;" vertex="1" parent="1">
          <mxGeometry x="510" y="1150" width="140" height="70" as="geometry" />
        </mxCell>
        <mxCell id="onKWjFYLNjn-iuKopyW6-48" value="Extends" style="endArrow=block;endSize=16;endFill=0;html=1;rounded=0;exitX=1;exitY=0.5;exitDx=0;exitDy=0;entryX=0;entryY=0.5;entryDx=0;entryDy=0;" edge="1" parent="1" source="onKWjFYLNjn-iuKopyW6-34" target="onKWjFYLNjn-iuKopyW6-47">
          <mxGeometry width="160" relative="1" as="geometry">
            <mxPoint x="424" y="1095" as="sourcePoint" />
            <mxPoint x="490" y="1180" as="targetPoint" />
          </mxGeometry>
        </mxCell>
        <mxCell id="onKWjFYLNjn-iuKopyW6-51" value="Зарегистрированный работник зала" style="text;html=1;align=center;verticalAlign=middle;resizable=0;points=[];autosize=1;strokeColor=none;fillColor=none;" vertex="1" parent="1">
          <mxGeometry x="20" y="1320" width="220" height="30" as="geometry" />
        </mxCell>
        <mxCell id="onKWjFYLNjn-iuKopyW6-53" value="Actor" style="shape=umlActor;verticalLabelPosition=bottom;verticalAlign=top;html=1;" vertex="1" parent="1">
          <mxGeometry x="20" y="1355" width="30" height="60" as="geometry" />
        </mxCell>
        <mxCell id="onKWjFYLNjn-iuKopyW6-54" value="авторизоваться" style="ellipse;whiteSpace=wrap;html=1;" vertex="1" parent="1">
          <mxGeometry x="234" y="1350" width="140" height="70" as="geometry" />
        </mxCell>
        <mxCell id="onKWjFYLNjn-iuKopyW6-55" value="" style="html=1;verticalAlign=bottom;endArrow=block;curved=0;rounded=0;entryX=0;entryY=0.5;entryDx=0;entryDy=0;" edge="1" parent="1" target="onKWjFYLNjn-iuKopyW6-54">
          <mxGeometry width="80" relative="1" as="geometry">
            <mxPoint x="40" y="1385" as="sourcePoint" />
            <mxPoint x="206" y="1268" as="targetPoint" />
          </mxGeometry>
        </mxCell>
        <mxCell id="onKWjFYLNjn-iuKopyW6-56" value="сканирование товара" style="ellipse;whiteSpace=wrap;html=1;" vertex="1" parent="1">
          <mxGeometry x="234" y="1435" width="140" height="70" as="geometry" />
        </mxCell>
        <mxCell id="onKWjFYLNjn-iuKopyW6-57" value="" style="html=1;verticalAlign=bottom;endArrow=block;curved=0;rounded=0;entryX=0;entryY=0.5;entryDx=0;entryDy=0;" edge="1" parent="1" target="onKWjFYLNjn-iuKopyW6-56">
          <mxGeometry width="80" relative="1" as="geometry">
            <mxPoint x="40" y="1385" as="sourcePoint" />
            <mxPoint x="244" y="1395" as="targetPoint" />
          </mxGeometry>
        </mxCell>
        <mxCell id="onKWjFYLNjn-iuKopyW6-62" value="работа с информаций о товаре" style="ellipse;whiteSpace=wrap;html=1;" vertex="1" parent="1">
          <mxGeometry x="234" y="1530" width="140" height="70" as="geometry" />
        </mxCell>
        <mxCell id="onKWjFYLNjn-iuKopyW6-63" value="" style="html=1;verticalAlign=bottom;endArrow=block;curved=0;rounded=0;" edge="1" parent="1">
          <mxGeometry width="80" relative="1" as="geometry">
            <mxPoint x="40" y="1385" as="sourcePoint" />
            <mxPoint x="240" y="1550" as="targetPoint" />
          </mxGeometry>
        </mxCell>
        <mxCell id="onKWjFYLNjn-iuKopyW6-64" value="ввод артикула с камеры" style="ellipse;whiteSpace=wrap;html=1;" vertex="1" parent="1">
          <mxGeometry x="460" y="1405" width="140" height="70" as="geometry" />
        </mxCell>
        <mxCell id="onKWjFYLNjn-iuKopyW6-65" value="ввод артикула вручную" style="ellipse;whiteSpace=wrap;html=1;" vertex="1" parent="1">
          <mxGeometry x="600" y="1455" width="140" height="70" as="geometry" />
        </mxCell>
        <mxCell id="onKWjFYLNjn-iuKopyW6-66" value="Extends" style="endArrow=block;endSize=16;endFill=0;html=1;rounded=0;entryX=0;entryY=0.5;entryDx=0;entryDy=0;exitX=1;exitY=0.5;exitDx=0;exitDy=0;" edge="1" parent="1" source="onKWjFYLNjn-iuKopyW6-56" target="onKWjFYLNjn-iuKopyW6-64">
          <mxGeometry width="160" relative="1" as="geometry">
            <mxPoint x="374" y="1384.5" as="sourcePoint" />
            <mxPoint x="534" y="1384.5" as="targetPoint" />
          </mxGeometry>
        </mxCell>
        <mxCell id="onKWjFYLNjn-iuKopyW6-67" value="Extends" style="endArrow=block;endSize=16;endFill=0;html=1;rounded=0;entryX=0;entryY=0.5;entryDx=0;entryDy=0;exitX=1;exitY=0.5;exitDx=0;exitDy=0;" edge="1" parent="1" source="onKWjFYLNjn-iuKopyW6-56" target="onKWjFYLNjn-iuKopyW6-65">
          <mxGeometry width="160" relative="1" as="geometry">
            <mxPoint x="384" y="1480" as="sourcePoint" />
            <mxPoint x="470" y="1450" as="targetPoint" />
          </mxGeometry>
        </mxCell>
        <mxCell id="onKWjFYLNjn-iuKopyW6-72" value="редактирование информации о товаре" style="ellipse;whiteSpace=wrap;html=1;" vertex="1" parent="1">
          <mxGeometry x="500" y="1530" width="140" height="70" as="geometry" />
        </mxCell>
        <mxCell id="onKWjFYLNjn-iuKopyW6-73" value="Extends" style="endArrow=block;endSize=16;endFill=0;html=1;rounded=0;exitX=1;exitY=0.5;exitDx=0;exitDy=0;entryX=0;entryY=0.5;entryDx=0;entryDy=0;" edge="1" parent="1" source="onKWjFYLNjn-iuKopyW6-62" target="onKWjFYLNjn-iuKopyW6-72">
          <mxGeometry width="160" relative="1" as="geometry">
            <mxPoint x="384" y="1650" as="sourcePoint" />
            <mxPoint x="450" y="1735" as="targetPoint" />
          </mxGeometry>
        </mxCell>
        <mxCell id="onKWjFYLNjn-iuKopyW6-74" value="перенос товара со склада на витрины" style="ellipse;whiteSpace=wrap;html=1;" vertex="1" parent="1">
          <mxGeometry x="234" y="1620" width="140" height="70" as="geometry" />
        </mxCell>
        <mxCell id="onKWjFYLNjn-iuKopyW6-75" value="" style="html=1;verticalAlign=bottom;endArrow=block;curved=0;rounded=0;entryX=0;entryY=0.5;entryDx=0;entryDy=0;" edge="1" parent="1" target="onKWjFYLNjn-iuKopyW6-74">
          <mxGeometry width="80" relative="1" as="geometry">
            <mxPoint x="50" y="1395" as="sourcePoint" />
            <mxPoint x="249" y="1561" as="targetPoint" />
          </mxGeometry>
        </mxCell>
        <mxCell id="onKWjFYLNjn-iuKopyW6-76" value="незарегистрированный пользователь" style="text;html=1;align=center;verticalAlign=middle;resizable=0;points=[];autosize=1;strokeColor=none;fillColor=none;" vertex="1" parent="1">
          <mxGeometry x="30" y="1840" width="230" height="30" as="geometry" />
        </mxCell>
        <mxCell id="onKWjFYLNjn-iuKopyW6-79" style="edgeStyle=orthogonalEdgeStyle;rounded=0;orthogonalLoop=1;jettySize=auto;html=1;entryX=0;entryY=0.5;entryDx=0;entryDy=0;" edge="1" parent="1" source="onKWjFYLNjn-iuKopyW6-77" target="onKWjFYLNjn-iuKopyW6-78">
          <mxGeometry relative="1" as="geometry" />
        </mxCell>
        <mxCell id="onKWjFYLNjn-iuKopyW6-77" value="Actor" style="shape=umlActor;verticalLabelPosition=bottom;verticalAlign=top;html=1;" vertex="1" parent="1">
          <mxGeometry x="80" y="1900" width="30" height="60" as="geometry" />
        </mxCell>
        <mxCell id="onKWjFYLNjn-iuKopyW6-78" value="попытка авторизоваться" style="ellipse;whiteSpace=wrap;html=1;" vertex="1" parent="1">
          <mxGeometry x="234" y="1895" width="140" height="70" as="geometry" />
        </mxCell>
        <mxCell id="onKWjFYLNjn-iuKopyW6-80" value="&lt;b&gt;Диаграммы классов&lt;/b&gt;" style="text;html=1;align=center;verticalAlign=middle;resizable=0;points=[];autosize=1;strokeColor=none;fillColor=none;" vertex="1" parent="1">
          <mxGeometry x="-350" y="2200" width="140" height="30" as="geometry" />
        </mxCell>
        <mxCell id="onKWjFYLNjn-iuKopyW6-81" value="Директор" style="swimlane;fontStyle=1;align=center;verticalAlign=top;childLayout=stackLayout;horizontal=1;startSize=26;horizontalStack=0;resizeParent=1;resizeParentMax=0;resizeLast=0;collapsible=1;marginBottom=0;whiteSpace=wrap;html=1;" vertex="1" parent="1">
          <mxGeometry x="130" y="2200" width="200" height="190" as="geometry" />
        </mxCell>
        <mxCell id="onKWjFYLNjn-iuKopyW6-82" value="-id integer" style="text;strokeColor=none;fillColor=none;align=left;verticalAlign=top;spacingLeft=4;spacingRight=4;overflow=hidden;rotatable=0;points=[[0,0.5],[1,0.5]];portConstraint=eastwest;whiteSpace=wrap;html=1;" vertex="1" parent="onKWjFYLNjn-iuKopyW6-81">
          <mxGeometry y="26" width="200" height="26" as="geometry" />
        </mxCell>
        <mxCell id="onKWjFYLNjn-iuKopyW6-85" value="-name varchar(128)" style="text;strokeColor=none;fillColor=none;align=left;verticalAlign=top;spacingLeft=4;spacingRight=4;overflow=hidden;rotatable=0;points=[[0,0.5],[1,0.5]];portConstraint=eastwest;whiteSpace=wrap;html=1;" vertex="1" parent="onKWjFYLNjn-iuKopyW6-81">
          <mxGeometry y="52" width="200" height="26" as="geometry" />
        </mxCell>
        <mxCell id="onKWjFYLNjn-iuKopyW6-83" value="" style="line;strokeWidth=1;fillColor=none;align=left;verticalAlign=middle;spacingTop=-1;spacingLeft=3;spacingRight=3;rotatable=0;labelPosition=right;points=[];portConstraint=eastwest;strokeColor=inherit;" vertex="1" parent="onKWjFYLNjn-iuKopyW6-81">
          <mxGeometry y="78" width="200" height="22" as="geometry" />
        </mxCell>
        <mxCell id="onKWjFYLNjn-iuKopyW6-84" value="+получить отчетность(): .xlsx" style="text;strokeColor=none;fillColor=none;align=left;verticalAlign=top;spacingLeft=4;spacingRight=4;overflow=hidden;rotatable=0;points=[[0,0.5],[1,0.5]];portConstraint=eastwest;whiteSpace=wrap;html=1;" vertex="1" parent="onKWjFYLNjn-iuKopyW6-81">
          <mxGeometry y="100" width="200" height="30" as="geometry" />
        </mxCell>
        <mxCell id="onKWjFYLNjn-iuKopyW6-86" value="+редактировать бд(): void" style="text;strokeColor=none;fillColor=none;align=left;verticalAlign=top;spacingLeft=4;spacingRight=4;overflow=hidden;rotatable=0;points=[[0,0.5],[1,0.5]];portConstraint=eastwest;whiteSpace=wrap;html=1;" vertex="1" parent="onKWjFYLNjn-iuKopyW6-81">
          <mxGeometry y="130" width="200" height="30" as="geometry" />
        </mxCell>
        <mxCell id="onKWjFYLNjn-iuKopyW6-87" value="+регистрация сотрудников(): void" style="text;strokeColor=none;fillColor=none;align=left;verticalAlign=top;spacingLeft=4;spacingRight=4;overflow=hidden;rotatable=0;points=[[0,0.5],[1,0.5]];portConstraint=eastwest;whiteSpace=wrap;html=1;" vertex="1" parent="onKWjFYLNjn-iuKopyW6-81">
          <mxGeometry y="160" width="200" height="30" as="geometry" />
        </mxCell>
        <mxCell id="onKWjFYLNjn-iuKopyW6-92" value="БД Товаров" style="swimlane;fontStyle=1;align=center;verticalAlign=top;childLayout=stackLayout;horizontal=1;startSize=26;horizontalStack=0;resizeParent=1;resizeParentMax=0;resizeLast=0;collapsible=1;marginBottom=0;whiteSpace=wrap;html=1;" vertex="1" parent="1">
          <mxGeometry x="-145" y="2396" width="160" height="264" as="geometry" />
        </mxCell>
        <mxCell id="onKWjFYLNjn-iuKopyW6-93" value="-артикул int" style="text;strokeColor=none;fillColor=none;align=left;verticalAlign=top;spacingLeft=4;spacingRight=4;overflow=hidden;rotatable=0;points=[[0,0.5],[1,0.5]];portConstraint=eastwest;whiteSpace=wrap;html=1;" vertex="1" parent="onKWjFYLNjn-iuKopyW6-92">
          <mxGeometry y="26" width="160" height="26" as="geometry" />
        </mxCell>
        <mxCell id="onKWjFYLNjn-iuKopyW6-96" value="-id int" style="text;strokeColor=none;fillColor=none;align=left;verticalAlign=top;spacingLeft=4;spacingRight=4;overflow=hidden;rotatable=0;points=[[0,0.5],[1,0.5]];portConstraint=eastwest;whiteSpace=wrap;html=1;" vertex="1" parent="onKWjFYLNjn-iuKopyW6-92">
          <mxGeometry y="52" width="160" height="26" as="geometry" />
        </mxCell>
        <mxCell id="onKWjFYLNjn-iuKopyW6-97" value="-дополнительная информация varchar(1024);" style="text;strokeColor=none;fillColor=none;align=left;verticalAlign=top;spacingLeft=4;spacingRight=4;overflow=hidden;rotatable=0;points=[[0,0.5],[1,0.5]];portConstraint=eastwest;whiteSpace=wrap;html=1;" vertex="1" parent="onKWjFYLNjn-iuKopyW6-92">
          <mxGeometry y="78" width="160" height="62" as="geometry" />
        </mxCell>
        <mxCell id="onKWjFYLNjn-iuKopyW6-94" value="" style="line;strokeWidth=1;fillColor=none;align=left;verticalAlign=middle;spacingTop=-1;spacingLeft=3;spacingRight=3;rotatable=0;labelPosition=right;points=[];portConstraint=eastwest;strokeColor=inherit;" vertex="1" parent="onKWjFYLNjn-iuKopyW6-92">
          <mxGeometry y="140" width="160" height="36" as="geometry" />
        </mxCell>
        <mxCell id="onKWjFYLNjn-iuKopyW6-98" value="+отправить информацию о товаре (): json" style="text;strokeColor=none;fillColor=none;align=left;verticalAlign=top;spacingLeft=4;spacingRight=4;overflow=hidden;rotatable=0;points=[[0,0.5],[1,0.5]];portConstraint=eastwest;whiteSpace=wrap;html=1;" vertex="1" parent="onKWjFYLNjn-iuKopyW6-92">
          <mxGeometry y="176" width="160" height="44" as="geometry" />
        </mxCell>
        <mxCell id="onKWjFYLNjn-iuKopyW6-99" value="+ожидание запросов (): void" style="text;strokeColor=none;fillColor=none;align=left;verticalAlign=top;spacingLeft=4;spacingRight=4;overflow=hidden;rotatable=0;points=[[0,0.5],[1,0.5]];portConstraint=eastwest;whiteSpace=wrap;html=1;" vertex="1" parent="onKWjFYLNjn-iuKopyW6-92">
          <mxGeometry y="220" width="160" height="44" as="geometry" />
        </mxCell>
        <mxCell id="onKWjFYLNjn-iuKopyW6-100" value="БД Сотрудников" style="swimlane;fontStyle=1;align=center;verticalAlign=top;childLayout=stackLayout;horizontal=1;startSize=26;horizontalStack=0;resizeParent=1;resizeParentMax=0;resizeLast=0;collapsible=1;marginBottom=0;whiteSpace=wrap;html=1;" vertex="1" parent="1">
          <mxGeometry x="414" y="2200" width="160" height="264" as="geometry" />
        </mxCell>
        <mxCell id="onKWjFYLNjn-iuKopyW6-102" value="-id int" style="text;strokeColor=none;fillColor=none;align=left;verticalAlign=top;spacingLeft=4;spacingRight=4;overflow=hidden;rotatable=0;points=[[0,0.5],[1,0.5]];portConstraint=eastwest;whiteSpace=wrap;html=1;" vertex="1" parent="onKWjFYLNjn-iuKopyW6-100">
          <mxGeometry y="26" width="160" height="26" as="geometry" />
        </mxCell>
        <mxCell id="onKWjFYLNjn-iuKopyW6-107" value="-name string" style="text;strokeColor=none;fillColor=none;align=left;verticalAlign=top;spacingLeft=4;spacingRight=4;overflow=hidden;rotatable=0;points=[[0,0.5],[1,0.5]];portConstraint=eastwest;whiteSpace=wrap;html=1;" vertex="1" parent="onKWjFYLNjn-iuKopyW6-100">
          <mxGeometry y="52" width="160" height="26" as="geometry" />
        </mxCell>
        <mxCell id="onKWjFYLNjn-iuKopyW6-103" value="-дополнительная информация varchar(1024);" style="text;strokeColor=none;fillColor=none;align=left;verticalAlign=top;spacingLeft=4;spacingRight=4;overflow=hidden;rotatable=0;points=[[0,0.5],[1,0.5]];portConstraint=eastwest;whiteSpace=wrap;html=1;" vertex="1" parent="onKWjFYLNjn-iuKopyW6-100">
          <mxGeometry y="78" width="160" height="62" as="geometry" />
        </mxCell>
        <mxCell id="onKWjFYLNjn-iuKopyW6-104" value="" style="line;strokeWidth=1;fillColor=none;align=left;verticalAlign=middle;spacingTop=-1;spacingLeft=3;spacingRight=3;rotatable=0;labelPosition=right;points=[];portConstraint=eastwest;strokeColor=inherit;" vertex="1" parent="onKWjFYLNjn-iuKopyW6-100">
          <mxGeometry y="140" width="160" height="36" as="geometry" />
        </mxCell>
        <mxCell id="onKWjFYLNjn-iuKopyW6-105" value="+отправить информацию о товаре (): json" style="text;strokeColor=none;fillColor=none;align=left;verticalAlign=top;spacingLeft=4;spacingRight=4;overflow=hidden;rotatable=0;points=[[0,0.5],[1,0.5]];portConstraint=eastwest;whiteSpace=wrap;html=1;" vertex="1" parent="onKWjFYLNjn-iuKopyW6-100">
          <mxGeometry y="176" width="160" height="44" as="geometry" />
        </mxCell>
        <mxCell id="onKWjFYLNjn-iuKopyW6-106" value="+ожидание запросов (): void" style="text;strokeColor=none;fillColor=none;align=left;verticalAlign=top;spacingLeft=4;spacingRight=4;overflow=hidden;rotatable=0;points=[[0,0.5],[1,0.5]];portConstraint=eastwest;whiteSpace=wrap;html=1;" vertex="1" parent="onKWjFYLNjn-iuKopyW6-100">
          <mxGeometry y="220" width="160" height="44" as="geometry" />
        </mxCell>
        <mxCell id="onKWjFYLNjn-iuKopyW6-108" value="БД продаж" style="swimlane;fontStyle=1;align=center;verticalAlign=top;childLayout=stackLayout;horizontal=1;startSize=26;horizontalStack=0;resizeParent=1;resizeParentMax=0;resizeLast=0;collapsible=1;marginBottom=0;whiteSpace=wrap;html=1;" vertex="1" parent="1">
          <mxGeometry x="-170" y="2780" width="160" height="264" as="geometry" />
        </mxCell>
        <mxCell id="onKWjFYLNjn-iuKopyW6-109" value="-артикул int" style="text;strokeColor=none;fillColor=none;align=left;verticalAlign=top;spacingLeft=4;spacingRight=4;overflow=hidden;rotatable=0;points=[[0,0.5],[1,0.5]];portConstraint=eastwest;whiteSpace=wrap;html=1;" vertex="1" parent="onKWjFYLNjn-iuKopyW6-108">
          <mxGeometry y="26" width="160" height="26" as="geometry" />
        </mxCell>
        <mxCell id="onKWjFYLNjn-iuKopyW6-110" value="-id int" style="text;strokeColor=none;fillColor=none;align=left;verticalAlign=top;spacingLeft=4;spacingRight=4;overflow=hidden;rotatable=0;points=[[0,0.5],[1,0.5]];portConstraint=eastwest;whiteSpace=wrap;html=1;" vertex="1" parent="onKWjFYLNjn-iuKopyW6-108">
          <mxGeometry y="52" width="160" height="26" as="geometry" />
        </mxCell>
        <mxCell id="onKWjFYLNjn-iuKopyW6-111" value="-дополнительная информация varchar(1024);" style="text;strokeColor=none;fillColor=none;align=left;verticalAlign=top;spacingLeft=4;spacingRight=4;overflow=hidden;rotatable=0;points=[[0,0.5],[1,0.5]];portConstraint=eastwest;whiteSpace=wrap;html=1;" vertex="1" parent="onKWjFYLNjn-iuKopyW6-108">
          <mxGeometry y="78" width="160" height="62" as="geometry" />
        </mxCell>
        <mxCell id="onKWjFYLNjn-iuKopyW6-112" value="" style="line;strokeWidth=1;fillColor=none;align=left;verticalAlign=middle;spacingTop=-1;spacingLeft=3;spacingRight=3;rotatable=0;labelPosition=right;points=[];portConstraint=eastwest;strokeColor=inherit;" vertex="1" parent="onKWjFYLNjn-iuKopyW6-108">
          <mxGeometry y="140" width="160" height="36" as="geometry" />
        </mxCell>
        <mxCell id="onKWjFYLNjn-iuKopyW6-113" value="+отправить информацию о продажах (): json" style="text;strokeColor=none;fillColor=none;align=left;verticalAlign=top;spacingLeft=4;spacingRight=4;overflow=hidden;rotatable=0;points=[[0,0.5],[1,0.5]];portConstraint=eastwest;whiteSpace=wrap;html=1;" vertex="1" parent="onKWjFYLNjn-iuKopyW6-108">
          <mxGeometry y="176" width="160" height="44" as="geometry" />
        </mxCell>
        <mxCell id="onKWjFYLNjn-iuKopyW6-114" value="+ожидание запросов (): void" style="text;strokeColor=none;fillColor=none;align=left;verticalAlign=top;spacingLeft=4;spacingRight=4;overflow=hidden;rotatable=0;points=[[0,0.5],[1,0.5]];portConstraint=eastwest;whiteSpace=wrap;html=1;" vertex="1" parent="onKWjFYLNjn-iuKopyW6-108">
          <mxGeometry y="220" width="160" height="44" as="geometry" />
        </mxCell>
        <mxCell id="onKWjFYLNjn-iuKopyW6-115" value="Кассир" style="swimlane;fontStyle=1;align=center;verticalAlign=top;childLayout=stackLayout;horizontal=1;startSize=26;horizontalStack=0;resizeParent=1;resizeParentMax=0;resizeLast=0;collapsible=1;marginBottom=0;whiteSpace=wrap;html=1;" vertex="1" parent="1">
          <mxGeometry x="130" y="2410" width="200" height="250" as="geometry" />
        </mxCell>
        <mxCell id="onKWjFYLNjn-iuKopyW6-116" value="-id integer" style="text;strokeColor=none;fillColor=none;align=left;verticalAlign=top;spacingLeft=4;spacingRight=4;overflow=hidden;rotatable=0;points=[[0,0.5],[1,0.5]];portConstraint=eastwest;whiteSpace=wrap;html=1;" vertex="1" parent="onKWjFYLNjn-iuKopyW6-115">
          <mxGeometry y="26" width="200" height="26" as="geometry" />
        </mxCell>
        <mxCell id="onKWjFYLNjn-iuKopyW6-117" value="-name varchar(128)" style="text;strokeColor=none;fillColor=none;align=left;verticalAlign=top;spacingLeft=4;spacingRight=4;overflow=hidden;rotatable=0;points=[[0,0.5],[1,0.5]];portConstraint=eastwest;whiteSpace=wrap;html=1;" vertex="1" parent="onKWjFYLNjn-iuKopyW6-115">
          <mxGeometry y="52" width="200" height="26" as="geometry" />
        </mxCell>
        <mxCell id="onKWjFYLNjn-iuKopyW6-118" value="" style="line;strokeWidth=1;fillColor=none;align=left;verticalAlign=middle;spacingTop=-1;spacingLeft=3;spacingRight=3;rotatable=0;labelPosition=right;points=[];portConstraint=eastwest;strokeColor=inherit;" vertex="1" parent="onKWjFYLNjn-iuKopyW6-115">
          <mxGeometry y="78" width="200" height="22" as="geometry" />
        </mxCell>
        <mxCell id="onKWjFYLNjn-iuKopyW6-119" value="+получить информацию о товаре(): json" style="text;strokeColor=none;fillColor=none;align=left;verticalAlign=top;spacingLeft=4;spacingRight=4;overflow=hidden;rotatable=0;points=[[0,0.5],[1,0.5]];portConstraint=eastwest;whiteSpace=wrap;html=1;" vertex="1" parent="onKWjFYLNjn-iuKopyW6-115">
          <mxGeometry y="100" width="200" height="40" as="geometry" />
        </mxCell>
        <mxCell id="onKWjFYLNjn-iuKopyW6-120" value="+редактировать информацию о товаре(): void" style="text;strokeColor=none;fillColor=none;align=left;verticalAlign=top;spacingLeft=4;spacingRight=4;overflow=hidden;rotatable=0;points=[[0,0.5],[1,0.5]];portConstraint=eastwest;whiteSpace=wrap;html=1;" vertex="1" parent="onKWjFYLNjn-iuKopyW6-115">
          <mxGeometry y="140" width="200" height="30" as="geometry" />
        </mxCell>
        <mxCell id="onKWjFYLNjn-iuKopyW6-121" value="+работа с корзиной покупателя" style="text;strokeColor=none;fillColor=none;align=left;verticalAlign=top;spacingLeft=4;spacingRight=4;overflow=hidden;rotatable=0;points=[[0,0.5],[1,0.5]];portConstraint=eastwest;whiteSpace=wrap;html=1;" vertex="1" parent="onKWjFYLNjn-iuKopyW6-115">
          <mxGeometry y="170" width="200" height="40" as="geometry" />
        </mxCell>
        <mxCell id="onKWjFYLNjn-iuKopyW6-122" value="+формирование оплаты&amp;nbsp;" style="text;strokeColor=none;fillColor=none;align=left;verticalAlign=top;spacingLeft=4;spacingRight=4;overflow=hidden;rotatable=0;points=[[0,0.5],[1,0.5]];portConstraint=eastwest;whiteSpace=wrap;html=1;" vertex="1" parent="onKWjFYLNjn-iuKopyW6-115">
          <mxGeometry y="210" width="200" height="40" as="geometry" />
        </mxCell>
        <mxCell id="onKWjFYLNjn-iuKopyW6-123" value="сотрудник зала" style="swimlane;fontStyle=1;align=center;verticalAlign=top;childLayout=stackLayout;horizontal=1;startSize=26;horizontalStack=0;resizeParent=1;resizeParentMax=0;resizeLast=0;collapsible=1;marginBottom=0;whiteSpace=wrap;html=1;" vertex="1" parent="1">
          <mxGeometry x="-430" y="2360" width="200" height="210" as="geometry" />
        </mxCell>
        <mxCell id="onKWjFYLNjn-iuKopyW6-124" value="-id integer" style="text;strokeColor=none;fillColor=none;align=left;verticalAlign=top;spacingLeft=4;spacingRight=4;overflow=hidden;rotatable=0;points=[[0,0.5],[1,0.5]];portConstraint=eastwest;whiteSpace=wrap;html=1;" vertex="1" parent="onKWjFYLNjn-iuKopyW6-123">
          <mxGeometry y="26" width="200" height="26" as="geometry" />
        </mxCell>
        <mxCell id="onKWjFYLNjn-iuKopyW6-125" value="-name varchar(128)" style="text;strokeColor=none;fillColor=none;align=left;verticalAlign=top;spacingLeft=4;spacingRight=4;overflow=hidden;rotatable=0;points=[[0,0.5],[1,0.5]];portConstraint=eastwest;whiteSpace=wrap;html=1;" vertex="1" parent="onKWjFYLNjn-iuKopyW6-123">
          <mxGeometry y="52" width="200" height="26" as="geometry" />
        </mxCell>
        <mxCell id="onKWjFYLNjn-iuKopyW6-126" value="" style="line;strokeWidth=1;fillColor=none;align=left;verticalAlign=middle;spacingTop=-1;spacingLeft=3;spacingRight=3;rotatable=0;labelPosition=right;points=[];portConstraint=eastwest;strokeColor=inherit;" vertex="1" parent="onKWjFYLNjn-iuKopyW6-123">
          <mxGeometry y="78" width="200" height="22" as="geometry" />
        </mxCell>
        <mxCell id="onKWjFYLNjn-iuKopyW6-127" value="+получить информацию о товаре(): json" style="text;strokeColor=none;fillColor=none;align=left;verticalAlign=top;spacingLeft=4;spacingRight=4;overflow=hidden;rotatable=0;points=[[0,0.5],[1,0.5]];portConstraint=eastwest;whiteSpace=wrap;html=1;" vertex="1" parent="onKWjFYLNjn-iuKopyW6-123">
          <mxGeometry y="100" width="200" height="40" as="geometry" />
        </mxCell>
        <mxCell id="onKWjFYLNjn-iuKopyW6-128" value="+редактировать информацию о товаре(): void" style="text;strokeColor=none;fillColor=none;align=left;verticalAlign=top;spacingLeft=4;spacingRight=4;overflow=hidden;rotatable=0;points=[[0,0.5],[1,0.5]];portConstraint=eastwest;whiteSpace=wrap;html=1;" vertex="1" parent="onKWjFYLNjn-iuKopyW6-123">
          <mxGeometry y="140" width="200" height="30" as="geometry" />
        </mxCell>
        <mxCell id="onKWjFYLNjn-iuKopyW6-129" value="+перенос товара из одного места в другое" style="text;strokeColor=none;fillColor=none;align=left;verticalAlign=top;spacingLeft=4;spacingRight=4;overflow=hidden;rotatable=0;points=[[0,0.5],[1,0.5]];portConstraint=eastwest;whiteSpace=wrap;html=1;" vertex="1" parent="onKWjFYLNjn-iuKopyW6-123">
          <mxGeometry y="170" width="200" height="40" as="geometry" />
        </mxCell>
        <mxCell id="onKWjFYLNjn-iuKopyW6-131" value="Корзина" style="swimlane;fontStyle=1;align=center;verticalAlign=top;childLayout=stackLayout;horizontal=1;startSize=26;horizontalStack=0;resizeParent=1;resizeParentMax=0;resizeLast=0;collapsible=1;marginBottom=0;whiteSpace=wrap;html=1;" vertex="1" parent="1">
          <mxGeometry x="-390" y="2830" width="160" height="138" as="geometry" />
        </mxCell>
        <mxCell id="onKWjFYLNjn-iuKopyW6-132" value="- id int" style="text;strokeColor=none;fillColor=none;align=left;verticalAlign=top;spacingLeft=4;spacingRight=4;overflow=hidden;rotatable=0;points=[[0,0.5],[1,0.5]];portConstraint=eastwest;whiteSpace=wrap;html=1;" vertex="1" parent="onKWjFYLNjn-iuKopyW6-131">
          <mxGeometry y="26" width="160" height="26" as="geometry" />
        </mxCell>
        <mxCell id="onKWjFYLNjn-iuKopyW6-135" value="- list : json" style="text;strokeColor=none;fillColor=none;align=left;verticalAlign=top;spacingLeft=4;spacingRight=4;overflow=hidden;rotatable=0;points=[[0,0.5],[1,0.5]];portConstraint=eastwest;whiteSpace=wrap;html=1;" vertex="1" parent="onKWjFYLNjn-iuKopyW6-131">
          <mxGeometry y="52" width="160" height="26" as="geometry" />
        </mxCell>
        <mxCell id="onKWjFYLNjn-iuKopyW6-133" value="" style="line;strokeWidth=1;fillColor=none;align=left;verticalAlign=middle;spacingTop=-1;spacingLeft=3;spacingRight=3;rotatable=0;labelPosition=right;points=[];portConstraint=eastwest;strokeColor=inherit;" vertex="1" parent="onKWjFYLNjn-iuKopyW6-131">
          <mxGeometry y="78" width="160" height="8" as="geometry" />
        </mxCell>
        <mxCell id="onKWjFYLNjn-iuKopyW6-136" value="+редактирование(): void" style="text;strokeColor=none;fillColor=none;align=left;verticalAlign=top;spacingLeft=4;spacingRight=4;overflow=hidden;rotatable=0;points=[[0,0.5],[1,0.5]];portConstraint=eastwest;whiteSpace=wrap;html=1;" vertex="1" parent="onKWjFYLNjn-iuKopyW6-131">
          <mxGeometry y="86" width="160" height="26" as="geometry" />
        </mxCell>
        <mxCell id="onKWjFYLNjn-iuKopyW6-134" value="+чтение():&amp;nbsp; json" style="text;strokeColor=none;fillColor=none;align=left;verticalAlign=top;spacingLeft=4;spacingRight=4;overflow=hidden;rotatable=0;points=[[0,0.5],[1,0.5]];portConstraint=eastwest;whiteSpace=wrap;html=1;" vertex="1" parent="onKWjFYLNjn-iuKopyW6-131">
          <mxGeometry y="112" width="160" height="26" as="geometry" />
        </mxCell>
        <mxCell id="onKWjFYLNjn-iuKopyW6-138" value="" style="endArrow=diamondThin;endFill=0;endSize=24;html=1;rounded=0;entryX=1;entryY=0.5;entryDx=0;entryDy=0;" edge="1" parent="1" target="onKWjFYLNjn-iuKopyW6-136">
          <mxGeometry width="160" relative="1" as="geometry">
            <mxPoint x="-170" y="2929" as="sourcePoint" />
            <mxPoint x="660" y="2782" as="targetPoint" />
          </mxGeometry>
        </mxCell>
        <mxCell id="onKWjFYLNjn-iuKopyW6-139" value="Use" style="endArrow=open;endSize=12;dashed=1;html=1;rounded=0;entryX=0.377;entryY=-0.012;entryDx=0;entryDy=0;entryPerimeter=0;exitX=0;exitY=0.5;exitDx=0;exitDy=0;" edge="1" parent="1" source="onKWjFYLNjn-iuKopyW6-82" target="onKWjFYLNjn-iuKopyW6-92">
          <mxGeometry width="160" relative="1" as="geometry">
            <mxPoint x="330" y="2190" as="sourcePoint" />
            <mxPoint x="480" y="2190" as="targetPoint" />
            <Array as="points">
              <mxPoint x="-85" y="2240" />
            </Array>
          </mxGeometry>
        </mxCell>
        <mxCell id="onKWjFYLNjn-iuKopyW6-140" value="Use" style="endArrow=open;endSize=12;dashed=1;html=1;rounded=0;entryX=0;entryY=0;entryDx=0;entryDy=0;exitX=1;exitY=0;exitDx=0;exitDy=0;" edge="1" parent="1" source="onKWjFYLNjn-iuKopyW6-81" target="onKWjFYLNjn-iuKopyW6-100">
          <mxGeometry width="160" relative="1" as="geometry">
            <mxPoint x="340" y="2200" as="sourcePoint" />
            <mxPoint x="577" y="2198" as="targetPoint" />
          </mxGeometry>
        </mxCell>
        <mxCell id="onKWjFYLNjn-iuKopyW6-141" value="Use" style="endArrow=open;endSize=12;dashed=1;html=1;rounded=0;entryX=0.109;entryY=-0.018;entryDx=0;entryDy=0;exitX=-0.034;exitY=-0.062;exitDx=0;exitDy=0;entryPerimeter=0;exitPerimeter=0;" edge="1" parent="1" source="onKWjFYLNjn-iuKopyW6-86" target="onKWjFYLNjn-iuKopyW6-108">
          <mxGeometry width="160" relative="1" as="geometry">
            <mxPoint x="340" y="2209" as="sourcePoint" />
            <mxPoint x="470" y="2456" as="targetPoint" />
            <Array as="points">
              <mxPoint x="70" y="2328" />
              <mxPoint x="70" y="2720" />
              <mxPoint x="-153" y="2720" />
            </Array>
          </mxGeometry>
        </mxCell>
        <mxCell id="onKWjFYLNjn-iuKopyW6-142" value="Use" style="endArrow=open;endSize=12;dashed=1;html=1;rounded=0;entryX=0.5;entryY=0;entryDx=0;entryDy=0;" edge="1" parent="1" target="onKWjFYLNjn-iuKopyW6-108">
          <mxGeometry width="160" relative="1" as="geometry">
            <mxPoint x="130" y="2620" as="sourcePoint" />
            <mxPoint x="450" y="2800" as="targetPoint" />
            <Array as="points">
              <mxPoint x="100" y="2620" />
              <mxPoint x="100" y="2750" />
              <mxPoint x="-90" y="2750" />
            </Array>
          </mxGeometry>
        </mxCell>
        <mxCell id="onKWjFYLNjn-iuKopyW6-143" value="Use" style="endArrow=open;endSize=12;dashed=1;html=1;rounded=0;exitX=0.002;exitY=0.044;exitDx=0;exitDy=0;exitPerimeter=0;entryX=1.007;entryY=-0.038;entryDx=0;entryDy=0;entryPerimeter=0;" edge="1" parent="1" source="onKWjFYLNjn-iuKopyW6-115" target="onKWjFYLNjn-iuKopyW6-93">
          <mxGeometry width="160" relative="1" as="geometry">
            <mxPoint x="360" y="2229" as="sourcePoint" />
            <mxPoint x="480" y="2420" as="targetPoint" />
          </mxGeometry>
        </mxCell>
        <mxCell id="onKWjFYLNjn-iuKopyW6-144" value="Use" style="endArrow=open;endSize=12;dashed=1;html=1;rounded=0;exitX=1;exitY=0.5;exitDx=0;exitDy=0;entryX=-0.029;entryY=0.071;entryDx=0;entryDy=0;entryPerimeter=0;" edge="1" parent="1" source="onKWjFYLNjn-iuKopyW6-125" target="onKWjFYLNjn-iuKopyW6-93">
          <mxGeometry width="160" relative="1" as="geometry">
            <mxPoint x="340" y="2431" as="sourcePoint" />
            <mxPoint x="677" y="2289" as="targetPoint" />
            <Array as="points" />
          </mxGeometry>
        </mxCell>
        <mxCell id="onKWjFYLNjn-iuKopyW6-145" value="Use" style="endArrow=open;endSize=12;dashed=1;html=1;rounded=0;exitX=0.722;exitY=1.133;exitDx=0;exitDy=0;exitPerimeter=0;entryX=0.621;entryY=1.218;entryDx=0;entryDy=0;entryPerimeter=0;" edge="1" parent="1" source="onKWjFYLNjn-iuKopyW6-122" target="onKWjFYLNjn-iuKopyW6-134">
          <mxGeometry x="-0.0198" width="160" relative="1" as="geometry">
            <mxPoint x="334.96" y="2500" as="sourcePoint" />
            <mxPoint x="180" y="3030" as="targetPoint" />
            <Array as="points">
              <mxPoint x="274" y="2780" />
              <mxPoint x="274" y="2870" />
              <mxPoint x="274" y="3060" />
              <mxPoint x="-291" y="3060" />
            </Array>
            <mxPoint as="offset" />
          </mxGeometry>
        </mxCell>
        <mxCell id="onKWjFYLNjn-iuKopyW6-146" value="" style="endArrow=diamondThin;endFill=1;endSize=24;html=1;rounded=0;exitX=-0.029;exitY=0.211;exitDx=0;exitDy=0;entryX=0.573;entryY=-0.034;entryDx=0;entryDy=0;entryPerimeter=0;exitPerimeter=0;" edge="1" parent="1" source="onKWjFYLNjn-iuKopyW6-99" target="onKWjFYLNjn-iuKopyW6-131">
          <mxGeometry width="160" relative="1" as="geometry">
            <mxPoint x="380" y="2620" as="sourcePoint" />
            <mxPoint x="540" y="2620" as="targetPoint" />
            <Array as="points">
              <mxPoint x="-298" y="2625" />
            </Array>
          </mxGeometry>
        </mxCell>
      </root>
    </mxGraphModel>
  </diagram>
</mxfile>
